<svg id="eamAsJvzPXR1" xmlns="http://www.w3.org/2000/svg" xmlns:xlink="http://www.w3.org/1999/xlink" viewBox="0 0 34 34" shape-rendering="geometricPrecision" text-rendering="geometricPrecision"><g clip-path="url(#eamAsJvzPXR3)"><clipPath id="eamAsJvzPXR3"><path d="M50.888473,42.237467Q67.732744,24.058173,74.930032,5.849369t12.760461,22.44996q-10.345714,19.33123-29.954098,19.33123c-19.608384,0-6.847921-5.393092-6.847922-5.393092Z" transform="translate(.000001 0)" fill="none" stroke="#3f5787" stroke-width="0.5"/></clipPath></g><ellipse rx="14.549345" ry="14.549345" transform="matrix(1.168437 0 0 1.168434 17 17)" fill="#ffcf00"/><g style="mix-blend-mode:color-dodge" transform="translate(-46.120087-16.999949)" opacity="0.43" clip-path="url(#eamAsJvzPXR8)"><ellipse rx="14.549345" ry="14.549345" transform="matrix(1.168437 0 0 1.168434 63.12008 34.074298)" fill="#f8f2ce"/><clipPath id="eamAsJvzPXR8"><path d="M80.120073,22.10069q0,28.89921,0,28.899209h-33.999986v-7.218613q23.98288.420042,33.999986-21.680596" fill="none" stroke="#3f5787" stroke-width="0.5"/></clipPath></g><ellipse rx="14.549345" ry="14.549345" transform="matrix(.897677 0 0 0.897678 17.074349 17.074349)" fill="none" stroke="#f8b013"/><ellipse rx="14.549345" ry="14.549345" transform="matrix(.77151 0 0 0.771511 17.074353 17.074349)" fill="none" stroke="#f8b013"/></svg>
