<svg id="exqXQK7eTrH1" xmlns="http://www.w3.org/2000/svg" xmlns:xlink="http://www.w3.org/1999/xlink" viewBox="0 0 24 24" shape-rendering="geometricPrecision" text-rendering="geometricPrecision"><ellipse rx="7.913669" ry="7.913669" transform="matrix(1.39 0 0 1.39 11.88 11.88)" fill="none" stroke="#000" stroke-width="0.7"/><g transform="matrix(.760642 0 0 0.760642 2.755431 3.649853)"><circle r="2" transform="matrix(.59 0 0 0.59 9.230477 17.18)"/><circle r="2" transform="matrix(.59 0 0 0.59 14.64 17.18)"/><path d="M23,3h-2v-2c0-.552285-.447715-1-1-1s-1,.447715-1,1v2h-2c-.552285,0-1,.447715-1,1s.447715,1,1,1h2v2c0,.552285.447715,1,1,1s1-.447715,1-1v-2h2c.552285,0,1-.447715,1-1s-.447715-1-1-1Z" transform="matrix(.59 0 0 0.59 5.2 3.28)"/><path d="M21.771,9.726c-.261168-.04887-.53103.008854-.749352.160289s-.366928.383973-.412648.645711c-.257394,1.428468-1.500527,2.467781-2.952,2.468h-12.239l-.94-8L13,5c.552285,0,1-.447715,1-1s-.447715-1-1-1h-8.758L4.2,2.648C4.02163,1.138297,2.742204,0.000648,1.222,0L1,0c-.552285,0-1,.447715-1,1s.447715,1,1,1h.222c.506975.000067.933684.379507.993.883l1.376,11.7C3.88669,17.101637,6.021066,19.000053,8.557,19L19,19c.552285,0,1-.447715,1-1s-.447715-1-1-1h-10.443c-1.271559.000243-2.405147-.801162-2.829-2h11.929c2.419078.000235,4.491372-1.731379,4.921-4.112.047179-.261118-.011356-.530281-.162715-.748223s-.383132-.366793-.644285-.413777Z" transform="matrix(.59 0 0 0.59 4.631756 3.895)"/></g></svg>
